<svg xmlns="http://www.w3.org/2000/svg" xmlns:xlink="http://www.w3.org/1999/xlink" width="500" zoomAndPan="magnify" viewBox="0 0 375 374.999991" height="500" preserveAspectRatio="xMidYMid meet" version="1.0"><defs><g/><clipPath id="a444f20315"><rect x="0" width="354" y="0" height="93"/></clipPath><clipPath id="d3dc97201f"><rect x="0" width="238" y="0" height="93"/></clipPath></defs><g transform="matrix(1, 0, 0, 1, 2, 111)"><g clip-path="url(#a444f20315)"><g fill="#ffffff" fill-opacity="1"><g transform="translate(3.786238, 66.467755)"><g><path d="M 50.390625 0 L 40.796875 -33.671875 L 31.203125 0 L 16 0 L -1.09375 -60 L 14.109375 -60 L 24.359375 -18.828125 L 24.71875 -18.828125 L 35.625 -60 L 45.953125 -60 L 56.859375 -18.828125 L 57.234375 -18.828125 L 67.484375 -60 L 82.609375 -60 L 65.515625 0 Z M 50.390625 0 "/></g></g></g><g fill="#ffffff" fill-opacity="1"><g transform="translate(81.732826, 66.467755)"><g><path d="M 42.109375 -16.875 L 15.046875 -16.875 C 15.046875 -14.25 15.894531 -12.304688 17.59375 -11.046875 C 19.289062 -9.785156 21.132812 -9.15625 23.125 -9.15625 C 25.207031 -9.15625 26.851562 -9.429688 28.0625 -9.984375 C 29.28125 -10.546875 30.664062 -11.65625 32.21875 -13.3125 L 41.515625 -8.65625 C 37.640625 -2.15625 31.191406 1.09375 22.171875 1.09375 C 16.554688 1.09375 11.734375 -0.832031 7.703125 -4.6875 C 3.679688 -8.539062 1.671875 -13.179688 1.671875 -18.609375 C 1.671875 -24.046875 3.679688 -28.703125 7.703125 -32.578125 C 11.734375 -36.453125 16.554688 -38.390625 22.171875 -38.390625 C 28.085938 -38.390625 32.898438 -36.679688 36.609375 -33.265625 C 40.316406 -29.847656 42.171875 -24.960938 42.171875 -18.609375 C 42.171875 -17.742188 42.148438 -17.164062 42.109375 -16.875 Z M 15.421875 -24 L 29.59375 -24 C 29.300781 -25.9375 28.535156 -27.425781 27.296875 -28.46875 C 26.066406 -29.507812 24.484375 -30.03125 22.546875 -30.03125 C 20.410156 -30.03125 18.710938 -29.472656 17.453125 -28.359375 C 16.191406 -27.242188 15.515625 -25.789062 15.421875 -24 Z M 15.421875 -24 "/></g></g></g><g fill="#ffffff" fill-opacity="1"><g transform="translate(122.014761, 66.467755)"><g><path d="M 4.359375 0 L 4.359375 -62.53125 L 17.234375 -62.53125 L 17.234375 0 Z M 4.359375 0 "/></g></g></g><g fill="#ffffff" fill-opacity="1"><g transform="translate(140.046929, 66.467755)"><g><path d="M 4.359375 0 L 4.359375 -62.53125 L 17.234375 -62.53125 L 17.234375 0 Z M 4.359375 0 "/></g></g></g><g fill="#ffffff" fill-opacity="1"><g transform="translate(158.079098, 66.467755)"><g><path d="M 42.75 -32.640625 C 46.25 -28.816406 48 -24.140625 48 -18.609375 C 48 -13.085938 46.25 -8.421875 42.75 -4.609375 C 39.257812 -0.804688 34.828125 1.09375 29.453125 1.09375 C 24.503906 1.09375 20.429688 -0.675781 17.234375 -4.21875 L 17.09375 -4.21875 L 17.09375 0 L 4.359375 0 L 4.359375 -62.53125 L 17.234375 -62.53125 L 17.234375 -33.734375 C 20.429688 -36.835938 24.503906 -38.390625 29.453125 -38.390625 C 34.828125 -38.390625 39.257812 -36.472656 42.75 -32.640625 Z M 31.921875 -12.328125 C 33.523438 -13.953125 34.328125 -16.046875 34.328125 -18.609375 C 34.328125 -21.179688 33.488281 -23.289062 31.8125 -24.9375 C 30.144531 -26.59375 28.070312 -27.421875 25.59375 -27.421875 C 23.175781 -27.421875 21.128906 -26.59375 19.453125 -24.9375 C 17.773438 -23.289062 16.9375 -21.179688 16.9375 -18.609375 C 16.9375 -16.085938 17.75 -14.003906 19.375 -12.359375 C 21 -10.710938 23.070312 -9.890625 25.59375 -9.890625 C 28.21875 -9.890625 30.328125 -10.703125 31.921875 -12.328125 Z M 31.921875 -12.328125 "/></g></g></g><g fill="#ffffff" fill-opacity="1"><g transform="translate(204.177973, 66.467755)"><g><path d="M 42.109375 -16.875 L 15.046875 -16.875 C 15.046875 -14.25 15.894531 -12.304688 17.59375 -11.046875 C 19.289062 -9.785156 21.132812 -9.15625 23.125 -9.15625 C 25.207031 -9.15625 26.851562 -9.429688 28.0625 -9.984375 C 29.28125 -10.546875 30.664062 -11.65625 32.21875 -13.3125 L 41.515625 -8.65625 C 37.640625 -2.15625 31.191406 1.09375 22.171875 1.09375 C 16.554688 1.09375 11.734375 -0.832031 7.703125 -4.6875 C 3.679688 -8.539062 1.671875 -13.179688 1.671875 -18.609375 C 1.671875 -24.046875 3.679688 -28.703125 7.703125 -32.578125 C 11.734375 -36.453125 16.554688 -38.390625 22.171875 -38.390625 C 28.085938 -38.390625 32.898438 -36.679688 36.609375 -33.265625 C 40.316406 -29.847656 42.171875 -24.960938 42.171875 -18.609375 C 42.171875 -17.742188 42.148438 -17.164062 42.109375 -16.875 Z M 15.421875 -24 L 29.59375 -24 C 29.300781 -25.9375 28.535156 -27.425781 27.296875 -28.46875 C 26.066406 -29.507812 24.484375 -30.03125 22.546875 -30.03125 C 20.410156 -30.03125 18.710938 -29.472656 17.453125 -28.359375 C 16.191406 -27.242188 15.515625 -25.789062 15.421875 -24 Z M 15.421875 -24 "/></g></g></g><g fill="#ffffff" fill-opacity="1"><g transform="translate(244.459908, 66.467755)"><g><path d="M 5.59375 -58.09375 C 7.101562 -59.601562 8.898438 -60.359375 10.984375 -60.359375 C 13.066406 -60.359375 14.859375 -59.601562 16.359375 -58.09375 C 17.859375 -56.59375 18.609375 -54.800781 18.609375 -52.71875 C 18.609375 -50.632812 17.859375 -48.835938 16.359375 -47.328125 C 14.859375 -45.828125 13.066406 -45.078125 10.984375 -45.078125 C 8.898438 -45.078125 7.101562 -45.828125 5.59375 -47.328125 C 4.09375 -48.835938 3.34375 -50.632812 3.34375 -52.71875 C 3.34375 -54.800781 4.09375 -56.59375 5.59375 -58.09375 Z M 4.359375 -37.3125 L 4.359375 0 L 17.234375 0 L 17.234375 -37.3125 Z M 4.359375 -37.3125 "/></g></g></g><g fill="#ffffff" fill-opacity="1"><g transform="translate(262.855642, 66.467755)"><g><path d="M 4.359375 0 L 4.359375 -37.3125 L 17.234375 -37.3125 L 17.234375 -33.375 L 17.375 -33.375 C 20.71875 -36.71875 24.28125 -38.390625 28.0625 -38.390625 C 29.90625 -38.390625 31.734375 -38.144531 33.546875 -37.65625 C 35.367188 -37.175781 37.113281 -36.425781 38.78125 -35.40625 C 40.457031 -34.394531 41.816406 -32.953125 42.859375 -31.078125 C 43.910156 -29.210938 44.4375 -27.046875 44.4375 -24.578125 L 44.4375 0 L 31.5625 0 L 31.5625 -21.09375 C 31.5625 -23.03125 30.941406 -24.722656 29.703125 -26.171875 C 28.460938 -27.628906 26.851562 -28.359375 24.875 -28.359375 C 22.9375 -28.359375 21.175781 -27.609375 19.59375 -26.109375 C 18.019531 -24.609375 17.234375 -22.9375 17.234375 -21.09375 L 17.234375 0 Z M 4.359375 0 "/></g></g></g><g fill="#ffffff" fill-opacity="1"><g transform="translate(307.354874, 66.467755)"><g><path d="M 2.6875 9.15625 L 13.234375 4 C 15.171875 7.195312 18.539062 8.796875 23.34375 8.796875 C 25.570312 8.796875 27.644531 8.082031 29.5625 6.65625 C 31.476562 5.226562 32.4375 3.035156 32.4375 0.078125 L 32.4375 -2.6875 C 30.15625 -0.164062 26.082031 1.09375 20.21875 1.09375 C 14.832031 1.09375 10.394531 -0.804688 6.90625 -4.609375 C 3.414062 -8.421875 1.671875 -13.085938 1.671875 -18.609375 C 1.671875 -24.140625 3.414062 -28.816406 6.90625 -32.640625 C 10.394531 -36.472656 14.832031 -38.390625 20.21875 -38.390625 C 25.019531 -38.390625 29.019531 -36.910156 32.21875 -33.953125 L 32.4375 -33.953125 L 32.4375 -37.3125 L 45.296875 -37.3125 L 45.296875 1.015625 C 45.296875 7.078125 43.285156 11.753906 39.265625 15.046875 C 35.242188 18.347656 29.9375 20 23.34375 20 C 12.675781 20 5.789062 16.382812 2.6875 9.15625 Z M 17.84375 -24.9375 C 16.175781 -23.289062 15.34375 -21.179688 15.34375 -18.609375 C 15.34375 -16.046875 16.140625 -13.953125 17.734375 -12.328125 C 19.335938 -10.703125 21.445312 -9.890625 24.0625 -9.890625 C 26.582031 -9.890625 28.65625 -10.710938 30.28125 -12.359375 C 31.90625 -14.003906 32.71875 -16.085938 32.71875 -18.609375 C 32.71875 -21.179688 31.878906 -23.289062 30.203125 -24.9375 C 28.535156 -26.59375 26.488281 -27.421875 24.0625 -27.421875 C 21.59375 -27.421875 19.519531 -26.59375 17.84375 -24.9375 Z M 17.84375 -24.9375 "/></g></g></g></g></g><g transform="matrix(1, 0, 0, 1, 134, 176)"><g clip-path="url(#d3dc97201f)"><g fill="#ffffff" fill-opacity="1"><g transform="translate(2.914109, 66.608707)"><g><path d="M 50.390625 0 L 40.796875 -33.671875 L 31.203125 0 L 16 0 L -1.09375 -60 L 14.109375 -60 L 24.359375 -18.828125 L 24.71875 -18.828125 L 35.625 -60 L 45.953125 -60 L 56.859375 -18.828125 L 57.234375 -18.828125 L 67.484375 -60 L 82.609375 -60 L 65.515625 0 Z M 50.390625 0 "/></g></g></g><g fill="#ffffff" fill-opacity="1"><g transform="translate(80.860697, 66.608707)"><g><path d="M 7.890625 -4.4375 C 3.742188 -8.125 1.671875 -12.847656 1.671875 -18.609375 C 1.671875 -24.378906 3.828125 -29.117188 8.140625 -32.828125 C 12.453125 -36.535156 17.785156 -38.390625 24.140625 -38.390625 C 30.390625 -38.390625 35.660156 -36.523438 39.953125 -32.796875 C 44.242188 -29.066406 46.390625 -24.335938 46.390625 -18.609375 C 46.390625 -12.890625 44.289062 -8.175781 40.09375 -4.46875 C 35.90625 -0.757812 30.585938 1.09375 24.140625 1.09375 C 17.453125 1.09375 12.035156 -0.75 7.890625 -4.4375 Z M 17.84375 -24.9375 C 16.175781 -23.289062 15.34375 -21.179688 15.34375 -18.609375 C 15.34375 -16.046875 16.140625 -13.953125 17.734375 -12.328125 C 19.335938 -10.703125 21.445312 -9.890625 24.0625 -9.890625 C 26.582031 -9.890625 28.65625 -10.710938 30.28125 -12.359375 C 31.90625 -14.003906 32.71875 -16.085938 32.71875 -18.609375 C 32.71875 -21.179688 31.878906 -23.289062 30.203125 -24.9375 C 28.535156 -26.59375 26.488281 -27.421875 24.0625 -27.421875 C 21.59375 -27.421875 19.519531 -26.59375 17.84375 -24.9375 Z M 17.84375 -24.9375 "/></g></g></g><g fill="#ffffff" fill-opacity="1"><g transform="translate(125.359914, 66.608707)"><g><path d="M 4.359375 0 L 4.359375 -37.3125 L 17.234375 -37.3125 L 17.234375 -31.921875 L 17.375 -31.921875 C 17.476562 -32.117188 17.640625 -32.363281 17.859375 -32.65625 C 18.078125 -32.945312 18.546875 -33.453125 19.265625 -34.171875 C 19.992188 -34.898438 20.769531 -35.554688 21.59375 -36.140625 C 22.414062 -36.722656 23.484375 -37.242188 24.796875 -37.703125 C 26.109375 -38.160156 27.441406 -38.390625 28.796875 -38.390625 C 30.203125 -38.390625 31.582031 -38.195312 32.9375 -37.8125 C 34.300781 -37.425781 35.296875 -37.039062 35.921875 -36.65625 L 36.9375 -36.0625 L 31.5625 -25.15625 C 29.957031 -26.519531 27.726562 -27.203125 24.875 -27.203125 C 23.320312 -27.203125 21.988281 -26.859375 20.875 -26.171875 C 19.757812 -25.492188 18.96875 -24.671875 18.5 -23.703125 C 18.039062 -22.734375 17.710938 -21.910156 17.515625 -21.234375 C 17.328125 -20.554688 17.234375 -20.023438 17.234375 -19.640625 L 17.234375 0 Z M 4.359375 0 "/></g></g></g><g fill="#ffffff" fill-opacity="1"><g transform="translate(158.007125, 66.608707)"><g><path d="M 46.96875 -37.3125 L 29.234375 -19.484375 L 48.71875 0 L 32.140625 0 L 17.234375 -14.90625 L 17.234375 0 L 4.359375 0 L 4.359375 -62.53125 L 17.234375 -62.53125 L 17.234375 -24.28125 L 30.25 -37.3125 Z M 46.96875 -37.3125 "/></g></g></g><g fill="#ffffff" fill-opacity="1"><g transform="translate(201.415663, 66.608707)"><g><path d="M 20.578125 -38.390625 C 22.710938 -38.390625 24.820312 -38.144531 26.90625 -37.65625 C 28.988281 -37.175781 30.539062 -36.695312 31.5625 -36.21875 L 33.09375 -35.484375 L 28.875 -27.046875 C 25.957031 -28.597656 23.191406 -29.375 20.578125 -29.375 C 19.117188 -29.375 18.085938 -29.21875 17.484375 -28.90625 C 16.878906 -28.59375 16.578125 -28 16.578125 -27.125 C 16.578125 -26.925781 16.597656 -26.726562 16.640625 -26.53125 C 16.691406 -26.34375 16.789062 -26.164062 16.9375 -26 C 17.082031 -25.832031 17.21875 -25.6875 17.34375 -25.5625 C 17.46875 -25.4375 17.671875 -25.300781 17.953125 -25.15625 C 18.242188 -25.007812 18.472656 -24.898438 18.640625 -24.828125 C 18.816406 -24.753906 19.097656 -24.644531 19.484375 -24.5 C 19.878906 -24.351562 20.171875 -24.242188 20.359375 -24.171875 C 20.554688 -24.097656 20.882812 -23.988281 21.34375 -23.84375 C 21.800781 -23.707031 22.148438 -23.613281 22.390625 -23.5625 C 23.898438 -23.125 25.210938 -22.640625 26.328125 -22.109375 C 27.441406 -21.578125 28.613281 -20.847656 29.84375 -19.921875 C 31.082031 -19.003906 32.039062 -17.84375 32.71875 -16.4375 C 33.394531 -15.03125 33.734375 -13.429688 33.734375 -11.640625 C 33.734375 -3.148438 27.847656 1.09375 16.078125 1.09375 C 13.410156 1.09375 10.875 0.679688 8.46875 -0.140625 C 6.070312 -0.960938 4.335938 -1.789062 3.265625 -2.625 L 1.671875 -3.921875 L 6.90625 -12.71875 C 7.289062 -12.382812 7.796875 -11.984375 8.421875 -11.515625 C 9.054688 -11.054688 10.195312 -10.425781 11.84375 -9.625 C 13.5 -8.832031 14.929688 -8.4375 16.140625 -8.4375 C 18.804688 -8.4375 20.140625 -9.332031 20.140625 -11.125 C 20.140625 -11.945312 19.800781 -12.585938 19.125 -13.046875 C 18.445312 -13.515625 17.296875 -14.035156 15.671875 -14.609375 C 14.046875 -15.191406 12.773438 -15.726562 11.859375 -16.21875 C 9.523438 -17.425781 7.679688 -18.789062 6.328125 -20.3125 C 4.972656 -21.84375 4.296875 -23.867188 4.296875 -26.390625 C 4.296875 -30.171875 5.757812 -33.113281 8.6875 -35.21875 C 11.625 -37.332031 15.585938 -38.390625 20.578125 -38.390625 Z M 20.578125 -38.390625 "/></g></g></g></g></g></svg>