<svg xmlns="http://www.w3.org/2000/svg" xmlns:xlink="http://www.w3.org/1999/xlink" width="150" zoomAndPan="magnify" viewBox="0 0 112.5 44.999999" height="60" preserveAspectRatio="xMidYMid meet" version="1.0"><defs><g/><clipPath id="1d4884bfa0"><path d="M 36 0.0546875 L 41 0.0546875 L 41 19 L 36 19 Z M 36 0.0546875 " clip-rule="nonzero"/></clipPath><clipPath id="6a68dbae13"><path d="M 41 0.0546875 L 46 0.0546875 L 46 19 L 41 19 Z M 41 0.0546875 " clip-rule="nonzero"/></clipPath><clipPath id="a4ab1d4800"><path d="M 46 0.0546875 L 60 0.0546875 L 60 20 L 46 20 Z M 46 0.0546875 " clip-rule="nonzero"/></clipPath><clipPath id="27ada4af86"><rect x="0" width="102" y="0" height="27"/></clipPath><clipPath id="8a5f933658"><path d="M 42 19 L 110 19 L 110 44.898438 L 42 44.898438 Z M 42 19 " clip-rule="nonzero"/></clipPath><clipPath id="3c72e1d554"><path d="M 0.292969 2 L 25 2 L 25 20 L 0.292969 20 Z M 0.292969 2 " clip-rule="nonzero"/></clipPath><clipPath id="b4e73120dc"><path d="M 57 8 L 67.671875 8 L 67.671875 20 L 57 20 Z M 57 8 " clip-rule="nonzero"/></clipPath><clipPath id="2c55b58223"><rect x="0" width="68" y="0" height="26"/></clipPath></defs><g transform="matrix(1, 0, 0, 1, 4, 1)"><g clip-path="url(#27ada4af86)"><g fill="#ffffff" fill-opacity="1"><g transform="translate(1.610213, 18.780908)"><g><path d="M 14.34375 0 L 11.609375 -9.578125 L 8.875 0 L 4.546875 0 L -0.3125 -17.0625 L 4.015625 -17.0625 L 6.9375 -5.359375 L 7.03125 -5.359375 L 10.140625 -17.0625 L 13.078125 -17.0625 L 16.171875 -5.359375 L 16.28125 -5.359375 L 19.203125 -17.0625 L 23.5 -17.0625 L 18.640625 0 Z M 14.34375 0 "/></g></g></g><g fill="#ffffff" fill-opacity="1"><g transform="translate(23.793139, 18.780908)"><g><path d="M 11.984375 -4.796875 L 4.28125 -4.796875 C 4.28125 -4.054688 4.519531 -3.503906 5 -3.140625 C 5.488281 -2.785156 6.015625 -2.609375 6.578125 -2.609375 C 7.171875 -2.609375 7.640625 -2.6875 7.984375 -2.84375 C 8.328125 -3 8.722656 -3.3125 9.171875 -3.78125 L 11.8125 -2.46875 C 10.707031 -0.613281 8.875 0.3125 6.3125 0.3125 C 4.707031 0.3125 3.332031 -0.234375 2.1875 -1.328125 C 1.039062 -2.429688 0.46875 -3.753906 0.46875 -5.296875 C 0.46875 -6.835938 1.039062 -8.160156 2.1875 -9.265625 C 3.332031 -10.367188 4.707031 -10.921875 6.3125 -10.921875 C 7.988281 -10.921875 9.351562 -10.429688 10.40625 -9.453125 C 11.46875 -8.484375 12 -7.097656 12 -5.296875 C 12 -5.046875 11.992188 -4.878906 11.984375 -4.796875 Z M 4.390625 -6.828125 L 8.421875 -6.828125 C 8.335938 -7.378906 8.117188 -7.800781 7.765625 -8.09375 C 7.410156 -8.394531 6.957031 -8.546875 6.40625 -8.546875 C 5.800781 -8.546875 5.316406 -8.382812 4.953125 -8.0625 C 4.597656 -7.75 4.410156 -7.335938 4.390625 -6.828125 Z M 4.390625 -6.828125 "/></g></g></g><g clip-path="url(#1d4884bfa0)"><g fill="#ffffff" fill-opacity="1"><g transform="translate(35.25703, 18.780908)"><g><path d="M 1.234375 0 L 1.234375 -17.796875 L 4.90625 -17.796875 L 4.90625 0 Z M 1.234375 0 "/></g></g></g></g><g clip-path="url(#6a68dbae13)"><g fill="#ffffff" fill-opacity="1"><g transform="translate(40.388829, 18.780908)"><g><path d="M 1.234375 0 L 1.234375 -17.796875 L 4.90625 -17.796875 L 4.90625 0 Z M 1.234375 0 "/></g></g></g></g><g clip-path="url(#a4ab1d4800)"><g fill="#ffffff" fill-opacity="1"><g transform="translate(45.520629, 18.780908)"><g><path d="M 12.15625 -9.28125 C 13.15625 -8.195312 13.65625 -6.867188 13.65625 -5.296875 C 13.65625 -3.722656 13.15625 -2.394531 12.15625 -1.3125 C 11.164062 -0.226562 9.90625 0.3125 8.375 0.3125 C 6.96875 0.3125 5.8125 -0.191406 4.90625 -1.203125 L 4.859375 -1.203125 L 4.859375 0 L 1.234375 0 L 1.234375 -17.796875 L 4.90625 -17.796875 L 4.90625 -9.59375 C 5.8125 -10.476562 6.96875 -10.921875 8.375 -10.921875 C 9.90625 -10.921875 11.164062 -10.375 12.15625 -9.28125 Z M 9.078125 -3.5 C 9.535156 -3.96875 9.765625 -4.566406 9.765625 -5.296875 C 9.765625 -6.023438 9.523438 -6.625 9.046875 -7.09375 C 8.578125 -7.5625 7.988281 -7.796875 7.28125 -7.796875 C 6.59375 -7.796875 6.007812 -7.5625 5.53125 -7.09375 C 5.050781 -6.625 4.8125 -6.023438 4.8125 -5.296875 C 4.8125 -4.578125 5.039062 -3.984375 5.5 -3.515625 C 5.96875 -3.046875 6.5625 -2.8125 7.28125 -2.8125 C 8.03125 -2.8125 8.628906 -3.039062 9.078125 -3.5 Z M 9.078125 -3.5 "/></g></g></g></g><g fill="#ffffff" fill-opacity="1"><g transform="translate(58.639971, 18.780908)"><g><path d="M 11.984375 -4.796875 L 4.28125 -4.796875 C 4.28125 -4.054688 4.519531 -3.503906 5 -3.140625 C 5.488281 -2.785156 6.015625 -2.609375 6.578125 -2.609375 C 7.171875 -2.609375 7.640625 -2.6875 7.984375 -2.84375 C 8.328125 -3 8.722656 -3.3125 9.171875 -3.78125 L 11.8125 -2.46875 C 10.707031 -0.613281 8.875 0.3125 6.3125 0.3125 C 4.707031 0.3125 3.332031 -0.234375 2.1875 -1.328125 C 1.039062 -2.429688 0.46875 -3.753906 0.46875 -5.296875 C 0.46875 -6.835938 1.039062 -8.160156 2.1875 -9.265625 C 3.332031 -10.367188 4.707031 -10.921875 6.3125 -10.921875 C 7.988281 -10.921875 9.351562 -10.429688 10.40625 -9.453125 C 11.46875 -8.484375 12 -7.097656 12 -5.296875 C 12 -5.046875 11.992188 -4.878906 11.984375 -4.796875 Z M 4.390625 -6.828125 L 8.421875 -6.828125 C 8.335938 -7.378906 8.117188 -7.800781 7.765625 -8.09375 C 7.410156 -8.394531 6.957031 -8.546875 6.40625 -8.546875 C 5.800781 -8.546875 5.316406 -8.382812 4.953125 -8.0625 C 4.597656 -7.75 4.410156 -7.335938 4.390625 -6.828125 Z M 4.390625 -6.828125 "/></g></g></g><g fill="#ffffff" fill-opacity="1"><g transform="translate(70.103861, 18.780908)"><g><path d="M 1.59375 -16.53125 C 2.019531 -16.957031 2.53125 -17.171875 3.125 -17.171875 C 3.71875 -17.171875 4.226562 -16.957031 4.65625 -16.53125 C 5.082031 -16.101562 5.296875 -15.59375 5.296875 -15 C 5.296875 -14.40625 5.082031 -13.894531 4.65625 -13.46875 C 4.226562 -13.039062 3.71875 -12.828125 3.125 -12.828125 C 2.53125 -12.828125 2.019531 -13.039062 1.59375 -13.46875 C 1.164062 -13.894531 0.953125 -14.40625 0.953125 -15 C 0.953125 -15.59375 1.164062 -16.101562 1.59375 -16.53125 Z M 1.234375 -10.609375 L 1.234375 0 L 4.90625 0 L 4.90625 -10.609375 Z M 1.234375 -10.609375 "/></g></g></g><g fill="#ffffff" fill-opacity="1"><g transform="translate(75.339128, 18.780908)"><g><path d="M 1.234375 0 L 1.234375 -10.609375 L 4.90625 -10.609375 L 4.90625 -9.5 L 4.9375 -9.5 C 5.894531 -10.445312 6.910156 -10.921875 7.984375 -10.921875 C 8.503906 -10.921875 9.023438 -10.851562 9.546875 -10.71875 C 10.066406 -10.582031 10.5625 -10.367188 11.03125 -10.078125 C 11.507812 -9.785156 11.894531 -9.375 12.1875 -8.84375 C 12.488281 -8.3125 12.640625 -7.695312 12.640625 -7 L 12.640625 0 L 8.984375 0 L 8.984375 -6 C 8.984375 -6.550781 8.804688 -7.03125 8.453125 -7.4375 C 8.097656 -7.851562 7.640625 -8.0625 7.078125 -8.0625 C 6.523438 -8.0625 6.023438 -7.847656 5.578125 -7.421875 C 5.128906 -6.992188 4.90625 -6.519531 4.90625 -6 L 4.90625 0 Z M 1.234375 0 "/></g></g></g><g fill="#ffffff" fill-opacity="1"><g transform="translate(88.003226, 18.780908)"><g><path d="M 0.765625 2.609375 L 3.765625 1.140625 C 4.316406 2.046875 5.273438 2.5 6.640625 2.5 C 7.273438 2.5 7.863281 2.296875 8.40625 1.890625 C 8.957031 1.484375 9.234375 0.859375 9.234375 0.015625 L 9.234375 -0.765625 C 8.578125 -0.046875 7.414062 0.3125 5.75 0.3125 C 4.21875 0.3125 2.953125 -0.226562 1.953125 -1.3125 C 0.960938 -2.394531 0.46875 -3.722656 0.46875 -5.296875 C 0.46875 -6.867188 0.960938 -8.195312 1.953125 -9.28125 C 2.953125 -10.375 4.21875 -10.921875 5.75 -10.921875 C 7.113281 -10.921875 8.253906 -10.5 9.171875 -9.65625 L 9.234375 -9.65625 L 9.234375 -10.609375 L 12.890625 -10.609375 L 12.890625 0.296875 C 12.890625 2.015625 12.316406 3.34375 11.171875 4.28125 C 10.023438 5.21875 8.515625 5.6875 6.640625 5.6875 C 3.609375 5.6875 1.648438 4.660156 0.765625 2.609375 Z M 5.078125 -7.09375 C 4.597656 -6.625 4.359375 -6.023438 4.359375 -5.296875 C 4.359375 -4.566406 4.585938 -3.96875 5.046875 -3.5 C 5.503906 -3.039062 6.101562 -2.8125 6.84375 -2.8125 C 7.5625 -2.8125 8.148438 -3.046875 8.609375 -3.515625 C 9.078125 -3.984375 9.3125 -4.578125 9.3125 -5.296875 C 9.3125 -6.023438 9.070312 -6.625 8.59375 -7.09375 C 8.113281 -7.5625 7.53125 -7.796875 6.84375 -7.796875 C 6.144531 -7.796875 5.554688 -7.5625 5.078125 -7.09375 Z M 5.078125 -7.09375 "/></g></g></g></g></g><g clip-path="url(#8a5f933658)"><g transform="matrix(1, 0, 0, 1, 42, 19)"><g clip-path="url(#2c55b58223)"><g clip-path="url(#3c72e1d554)"><g fill="#ffffff" fill-opacity="1"><g transform="translate(0.928072, 19.319479)"><g><path d="M 14.34375 0 L 11.609375 -9.578125 L 8.875 0 L 4.546875 0 L -0.3125 -17.0625 L 4.015625 -17.0625 L 6.9375 -5.359375 L 7.03125 -5.359375 L 10.140625 -17.0625 L 13.078125 -17.0625 L 16.171875 -5.359375 L 16.28125 -5.359375 L 19.203125 -17.0625 L 23.5 -17.0625 L 18.640625 0 Z M 14.34375 0 "/></g></g></g></g><g fill="#ffffff" fill-opacity="1"><g transform="translate(23.110998, 19.319479)"><g><path d="M 2.234375 -1.25 C 1.054688 -2.300781 0.46875 -3.648438 0.46875 -5.296875 C 0.46875 -6.941406 1.082031 -8.289062 2.3125 -9.34375 C 3.539062 -10.394531 5.0625 -10.921875 6.875 -10.921875 C 8.644531 -10.921875 10.140625 -10.390625 11.359375 -9.328125 C 12.585938 -8.265625 13.203125 -6.921875 13.203125 -5.296875 C 13.203125 -3.671875 12.601562 -2.328125 11.40625 -1.265625 C 10.21875 -0.210938 8.707031 0.3125 6.875 0.3125 C 4.96875 0.3125 3.421875 -0.207031 2.234375 -1.25 Z M 5.078125 -7.09375 C 4.597656 -6.625 4.359375 -6.023438 4.359375 -5.296875 C 4.359375 -4.566406 4.585938 -3.96875 5.046875 -3.5 C 5.503906 -3.039062 6.101562 -2.8125 6.84375 -2.8125 C 7.5625 -2.8125 8.148438 -3.046875 8.609375 -3.515625 C 9.078125 -3.984375 9.3125 -4.578125 9.3125 -5.296875 C 9.3125 -6.023438 9.070312 -6.625 8.59375 -7.09375 C 8.113281 -7.5625 7.53125 -7.796875 6.84375 -7.796875 C 6.144531 -7.796875 5.554688 -7.5625 5.078125 -7.09375 Z M 5.078125 -7.09375 "/></g></g></g><g fill="#ffffff" fill-opacity="1"><g transform="translate(35.775091, 19.319479)"><g><path d="M 1.234375 0 L 1.234375 -10.609375 L 4.90625 -10.609375 L 4.90625 -9.078125 L 4.9375 -9.078125 C 4.96875 -9.140625 5.015625 -9.207031 5.078125 -9.28125 C 5.140625 -9.363281 5.273438 -9.507812 5.484375 -9.71875 C 5.691406 -9.925781 5.910156 -10.113281 6.140625 -10.28125 C 6.378906 -10.445312 6.679688 -10.59375 7.046875 -10.71875 C 7.421875 -10.851562 7.800781 -10.921875 8.1875 -10.921875 C 8.59375 -10.921875 8.988281 -10.863281 9.375 -10.75 C 9.757812 -10.644531 10.039062 -10.535156 10.21875 -10.421875 L 10.515625 -10.265625 L 8.984375 -7.15625 C 8.523438 -7.539062 7.890625 -7.734375 7.078125 -7.734375 C 6.628906 -7.734375 6.25 -7.632812 5.9375 -7.4375 C 5.625 -7.25 5.398438 -7.015625 5.265625 -6.734375 C 5.128906 -6.460938 5.035156 -6.226562 4.984375 -6.03125 C 4.929688 -5.84375 4.90625 -5.691406 4.90625 -5.578125 L 4.90625 0 Z M 1.234375 0 "/></g></g></g><g fill="#ffffff" fill-opacity="1"><g transform="translate(45.066205, 19.319479)"><g><path d="M 13.359375 -10.609375 L 8.3125 -5.546875 L 13.859375 0 L 9.140625 0 L 4.90625 -4.234375 L 4.90625 0 L 1.234375 0 L 1.234375 -17.796875 L 4.90625 -17.796875 L 4.90625 -6.90625 L 8.609375 -10.609375 Z M 13.359375 -10.609375 "/></g></g></g><g clip-path="url(#b4e73120dc)"><g fill="#ffffff" fill-opacity="1"><g transform="translate(57.4199, 19.319479)"><g><path d="M 5.859375 -10.921875 C 6.460938 -10.921875 7.0625 -10.851562 7.65625 -10.71875 C 8.25 -10.582031 8.691406 -10.441406 8.984375 -10.296875 L 9.40625 -10.09375 L 8.21875 -7.703125 C 7.382812 -8.140625 6.597656 -8.359375 5.859375 -8.359375 C 5.441406 -8.359375 5.144531 -8.3125 4.96875 -8.21875 C 4.800781 -8.132812 4.71875 -7.96875 4.71875 -7.71875 C 4.71875 -7.664062 4.722656 -7.609375 4.734375 -7.546875 C 4.753906 -7.492188 4.78125 -7.441406 4.8125 -7.390625 C 4.851562 -7.347656 4.890625 -7.304688 4.921875 -7.265625 C 4.960938 -7.234375 5.023438 -7.195312 5.109375 -7.15625 C 5.191406 -7.113281 5.253906 -7.082031 5.296875 -7.0625 C 5.347656 -7.039062 5.425781 -7.007812 5.53125 -6.96875 C 5.644531 -6.925781 5.726562 -6.894531 5.78125 -6.875 C 5.84375 -6.851562 5.9375 -6.820312 6.0625 -6.78125 C 6.195312 -6.738281 6.300781 -6.710938 6.375 -6.703125 C 6.800781 -6.578125 7.171875 -6.4375 7.484375 -6.28125 C 7.804688 -6.132812 8.140625 -5.929688 8.484375 -5.671875 C 8.835938 -5.410156 9.109375 -5.078125 9.296875 -4.671875 C 9.492188 -4.273438 9.59375 -3.820312 9.59375 -3.3125 C 9.59375 -0.894531 7.921875 0.3125 4.578125 0.3125 C 3.816406 0.3125 3.09375 0.195312 2.40625 -0.03125 C 1.726562 -0.269531 1.238281 -0.507812 0.9375 -0.75 L 0.46875 -1.109375 L 1.96875 -3.625 C 2.070312 -3.519531 2.210938 -3.398438 2.390625 -3.265625 C 2.578125 -3.140625 2.90625 -2.960938 3.375 -2.734375 C 3.84375 -2.515625 4.25 -2.40625 4.59375 -2.40625 C 5.351562 -2.40625 5.734375 -2.660156 5.734375 -3.171875 C 5.734375 -3.398438 5.632812 -3.578125 5.4375 -3.703125 C 5.25 -3.835938 4.921875 -3.988281 4.453125 -4.15625 C 3.992188 -4.320312 3.632812 -4.472656 3.375 -4.609375 C 2.707031 -4.953125 2.179688 -5.34375 1.796875 -5.78125 C 1.410156 -6.21875 1.21875 -6.796875 1.21875 -7.515625 C 1.21875 -8.585938 1.632812 -9.421875 2.46875 -10.015625 C 3.300781 -10.617188 4.429688 -10.921875 5.859375 -10.921875 Z M 5.859375 -10.921875 "/></g></g></g></g></g></g></g></svg>